<?xml version="1.0" encoding="UTF-8" standalone="no"?>
<!-- Created with Inkscape (http://www.inkscape.org/) -->

<svg
   xmlns:dc="http://purl.org/dc/elements/1.1/"
   xmlns:cc="http://creativecommons.org/ns#"
   xmlns:rdf="http://www.w3.org/1999/02/22-rdf-syntax-ns#"
   xmlns:svg="http://www.w3.org/2000/svg"
   xmlns="http://www.w3.org/2000/svg"
   xmlns:sodipodi="http://sodipodi.sourceforge.net/DTD/sodipodi-0.dtd"
   xmlns:inkscape="http://www.inkscape.org/namespaces/inkscape"
   width="744.09448819"
   height="1052.3622047"
   id="svg2"
   version="1.1"
   inkscape:version="0.48.4 r9939"
   sodipodi:docname="short_comuter_syllabus.svg">
  <defs
     id="defs4" />
  <sodipodi:namedview
     id="base"
     pagecolor="#ffffff"
     bordercolor="#666666"
     borderopacity="1.0"
     inkscape:pageopacity="0.0"
     inkscape:pageshadow="2"
     inkscape:zoom="0.43852551"
     inkscape:cx="658.67411"
     inkscape:cy="499.10271"
     inkscape:document-units="px"
     inkscape:current-layer="layer2"
     showgrid="false"
     inkscape:window-width="1024"
     inkscape:window-height="716"
     inkscape:window-x="0"
     inkscape:window-y="25"
     inkscape:window-maximized="1" />
  <metadata
     id="metadata7">
    <rdf:RDF>
      <cc:Work
         rdf:about="">
        <dc:format>image/svg+xml</dc:format>
        <dc:type
           rdf:resource="http://purl.org/dc/dcmitype/StillImage" />
        <dc:title></dc:title>
      </cc:Work>
    </rdf:RDF>
  </metadata>
  <g
     inkscape:groupmode="layer"
     id="layer2"
     inkscape:label="background"
     style="display:inline">
    <rect
       style="fill:#f7ffff;fill-opacity:1;stroke:none"
       id="rect3053"
       width="705.11407"
       height="1018.1848"
       x="18.332968"
       y="18.664883"
       rx="0.38292202"
       ry="1.3605382" />
  </g>
  <g
     inkscape:groupmode="layer"
     id="layer7"
     inkscape:label="inset bg">
    <rect
       style="fill:#ffe300;fill-opacity:1;stroke:none"
       id="rect4075"
       width="280.93024"
       height="54.879395"
       x="348.87616"
       y="468.28864"
       rx="0.28688371"
       ry="1.3605382" />
  </g>
  <g
     inkscape:groupmode="layer"
     id="layer3"
     inkscape:label="clouds"
     style="display:inline">
    <path
       style="fill:#ffffff;fill-opacity:1;stroke:#000000;stroke-width:1.10000002;stroke-miterlimit:4;stroke-opacity:1;stroke-dasharray:none"
       d="m 352.38962,210.97611 c -14.92429,0 -27.26573,9.47386 -29.3125,21.78125 -6.04813,-8.05668 -16.61214,-13.3125 -28.5,-13.3125 -17.4725,0 -31.82254,11.29638 -33.625,25.8125 -5.22745,-2.9648 -11.34027,-4.65625 -17.84375,-4.65625 -19.08176,0 -34.5625,14.52401 -34.5625,32.4375 0,17.91349 15.48074,32.4375 34.5625,32.4375 4.19894,0 8.21478,-0.71225 11.9375,-2 14.37,8.85597 38.38899,14.6875 65.625,14.6875 22.90147,0 43.5283,-4.11619 58.0625,-10.6875 4.53992,4.06047 10.04157,6.4375 15.96875,6.4375 15.57695,0 28.21875,-16.40621 28.21875,-36.65625 l -0.15625,-3.8125 c -1.50097,-18.67307 -13.62039,-32.84375 -28.0625,-32.84375 -5.52213,0 -10.68163,2.05942 -15.03125,5.625 1.49859,-3.03691 2.34375,-6.37019 2.34375,-9.875 l -0.15625,-2.625 c -1.57602,-12.92751 -14.30453,-22.75 -29.46875,-22.75 z m 19.71875,44.34375 c -0.48953,0.85095 -0.94276,1.75044 -1.375,2.65625 -0.57856,-0.19861 -1.15841,-0.402 -1.75,-0.59375 1.09524,-0.6363 2.14115,-1.3095 3.125,-2.0625 z"
       id="path3826"
       inkscape:connector-curvature="0" />
    <path
       inkscape:connector-curvature="0"
       style="fill:#ffffff;fill-opacity:1;stroke:#000000;stroke-width:1.10000002;stroke-miterlimit:4;stroke-opacity:1;stroke-dasharray:none"
       d="m 166.05277,320.96847 c -11.97898,0 -21.88484,8.60135 -23.52768,19.77527 -4.85453,-7.31469 -13.33374,-12.08646 -22.87554,-12.08646 -14.02431,0 -25.542371,10.25602 -26.989116,23.43526 -4.195814,-2.69176 -9.10227,-4.22743 -14.322291,-4.22743 -15.31598,0 -27.7416,13.18639 -27.7416,29.45012 0,16.26372 12.42562,29.45011 27.7416,29.45011 3.370281,0 6.593596,-0.64665 9.581638,-1.8158 11.534084,8.04037 30.812939,13.33483 52.673929,13.33483 18.38187,0 34.938,-3.7371 46.60388,-9.70321 3.64397,3.68651 8.05987,5.84462 12.81733,5.84462 12.50284,0 22.64979,-14.89525 22.64979,-33.28034 l -0.12542,-3.46138 c -1.20476,-16.95334 -10.93241,-29.81895 -22.52437,-29.81895 -4.43235,0 -8.57362,1.86976 -12.06484,5.10696 1.20284,-2.75722 1.88121,-5.78352 1.88121,-8.96555 l -0.12542,-2.38325 c -1.26498,-11.73693 -11.48153,-20.6548 -23.6531,-20.6548 z m 15.82727,40.25984 c -0.39293,0.77259 -0.75671,1.58923 -1.10365,2.41162 -0.46438,-0.18032 -0.9298,-0.36498 -1.40464,-0.53906 0.8791,-0.57771 1.7186,-1.1889 2.50829,-1.87256 z"
       id="path3826-2" />
    <path
       inkscape:connector-curvature="0"
       style="fill:#ffffff;fill-opacity:1;stroke:#000000;stroke-width:1.10000002;stroke-miterlimit:4;stroke-opacity:1;stroke-dasharray:none"
       d="m 169.28231,571.98908 c -10.99722,0 -20.09122,8.60134 -21.59942,19.77526 -4.45667,-7.31468 -12.24094,-12.08645 -21.00071,-12.08645 -12.8749,0 -23.44897,10.25602 -24.77714,23.43525 -3.851941,-2.69175 -8.356277,-4.22743 -13.148477,-4.22743 -14.060723,0 -25.46797,13.1864 -25.46797,29.45012 0,16.26372 11.407247,29.45012 25.46797,29.45012 3.09406,0 6.053201,-0.64665 8.79635,-1.8158 10.588777,8.04036 28.287577,13.33482 48.356897,13.33482 16.87534,0 32.07457,-3.7371 42.78434,-9.70321 3.34532,3.68651 7.3993,5.84463 11.76684,5.84463 11.47815,0 20.79347,-14.89526 20.79347,-33.28034 l -0.11514,-3.46138 c -1.10601,-16.95335 -10.03641,-29.81896 -20.67833,-29.81896 -4.06907,0 -7.87094,1.86976 -11.07603,5.10696 1.10426,-2.75722 1.72703,-5.78351 1.72703,-8.96554 l -0.11513,-2.38325 c -1.16132,-11.73693 -10.54054,-20.6548 -21.71455,-20.6548 z m 14.53009,40.25984 c -0.36071,0.77258 -0.69469,1.58923 -1.01318,2.41162 -0.42633,-0.18032 -0.8536,-0.36498 -1.28953,-0.53907 0.80706,-0.5777 1.57775,-1.1889 2.30271,-1.87255 z"
       id="path3826-9" />
    <path
       inkscape:connector-curvature="0"
       style="fill:#ffffff;fill-opacity:1;stroke:#000000;stroke-width:1.10000002;stroke-miterlimit:4;stroke-opacity:1;stroke-dasharray:none"
       d="m 525.84394,313.91732 c -14.92429,0 -27.26573,9.47386 -29.3125,21.78125 -6.04813,-8.05668 -16.61214,-13.3125 -28.5,-13.3125 -17.4725,0 -31.82254,11.29638 -33.625,25.8125 -5.22745,-2.9648 -11.34027,-4.65625 -17.84375,-4.65625 -19.08176,0 -34.5625,14.52401 -34.5625,32.4375 0,17.91349 15.48074,32.4375 34.5625,32.4375 4.19894,0 8.21478,-0.71225 11.9375,-2 14.37,8.85597 38.38899,14.6875 65.625,14.6875 22.90147,0 43.5283,-4.11619 58.0625,-10.6875 4.53992,4.06047 10.04157,6.4375 15.96875,6.4375 15.57695,0 28.21875,-16.40621 28.21875,-36.65625 l -0.15625,-3.8125 c -1.50097,-18.67307 -13.62039,-32.84375 -28.0625,-32.84375 -5.52213,0 -10.68163,2.05942 -15.03125,5.625 1.49859,-3.03691 2.34375,-6.37019 2.34375,-9.875 l -0.15625,-2.625 c -1.57602,-12.92751 -14.30453,-22.75 -29.46875,-22.75 z m 19.71875,44.34375 c -0.48953,0.85095 -0.94276,1.75044 -1.375,2.65625 -0.57856,-0.19861 -1.15841,-0.402 -1.75,-0.59375 1.09524,-0.6363 2.14115,-1.3095 3.125,-2.0625 z"
       id="path3826-0" />
    <path
       inkscape:connector-curvature="0"
       style="fill:#ffffff;fill-opacity:1;stroke:#000000;stroke-width:1.10000002;stroke-miterlimit:4;stroke-opacity:1;stroke-dasharray:none"
       d="m 634.15046,494.42652 c -17.96777,0 -32.82598,10.09708 -35.29014,23.21409 -7.28152,-8.58667 -19.99982,-14.18824 -34.31195,-14.18824 -21.03563,0 -38.31205,12.0395 -40.48208,27.51053 -6.29347,-3.15983 -13.65287,-4.96255 -21.48259,-4.96255 -22.97307,0 -41.61076,15.47945 -41.61076,34.57134 0,19.0919 18.63769,34.57134 41.61076,34.57134 5.05522,0 9.89,-0.7591 14.37189,-2.13156 17.30045,9.43854 46.21758,15.65369 79.00777,15.65369 27.57173,0 52.40494,-4.38697 69.90307,-11.39056 5.46574,4.32758 12.08933,6.86098 19.22523,6.86098 18.75353,0 33.97334,-17.48546 33.97334,-39.06762 l -0.18811,-4.06329 c -1.80706,-19.90145 -16.39797,-35.00432 -33.78523,-35.00432 -6.64825,0 -12.85991,2.19489 -18.09654,5.99503 1.80419,-3.23669 2.8217,-6.78924 2.8217,-10.52461 l -0.18811,-2.79768 c -1.89742,-13.77792 -17.22162,-24.24657 -35.47825,-24.24657 z m 23.73995,47.26083 c -0.58936,0.90692 -1.13501,1.86559 -1.6554,2.83098 -0.69654,-0.21167 -1.39464,-0.42844 -2.10687,-0.63281 1.31859,-0.67815 2.57779,-1.39564 3.76227,-2.19817 z"
       id="path3826-5" />
    <path
       inkscape:connector-curvature="0"
       style="fill:#ffffff;fill-opacity:1;stroke:#000000;stroke-width:1.10000002;stroke-miterlimit:4;stroke-opacity:1;stroke-dasharray:none"
       d="m 556.86894,608.65503 c -14.92429,0 -27.26573,9.47386 -29.3125,21.78125 -6.04813,-8.05668 -16.61214,-13.3125 -28.5,-13.3125 -17.4725,0 -31.82254,11.29638 -33.625,25.8125 -5.22745,-2.9648 -11.34027,-4.65625 -17.84375,-4.65625 -19.08176,0 -34.5625,14.52401 -34.5625,32.4375 0,17.91349 15.48074,32.4375 34.5625,32.4375 4.19894,0 8.21478,-0.71225 11.9375,-2 14.37,8.85597 38.38899,14.6875 65.625,14.6875 22.90147,0 43.5283,-4.11619 58.0625,-10.6875 4.53992,4.06047 10.04157,6.4375 15.96875,6.4375 15.57695,0 28.21875,-16.40621 28.21875,-36.65625 l -0.15625,-3.8125 c -1.50097,-18.67307 -13.62039,-32.84375 -28.0625,-32.84375 -5.52213,0 -10.68163,2.05942 -15.03125,5.625 1.49859,-3.03691 2.34375,-6.37019 2.34375,-9.875 l -0.15625,-2.625 c -1.57602,-12.92751 -14.30453,-22.75 -29.46875,-22.75 z m 19.71875,44.34375 c -0.48953,0.85095 -0.94276,1.75044 -1.375,2.65625 -0.57856,-0.19861 -1.15841,-0.402 -1.75,-0.59375 1.09524,-0.6363 2.14115,-1.3095 3.125,-2.0625 z"
       id="path3826-04" />
    <path
       inkscape:connector-curvature="0"
       style="fill:#ffffff;fill-opacity:1;stroke:#000000;stroke-width:1.10000002;stroke-miterlimit:4;stroke-opacity:1;stroke-dasharray:none"
       d="m 245.20851,722.8835 c -14.92429,0 -27.26573,9.47386 -29.3125,21.78125 -6.04813,-8.05668 -16.61214,-13.3125 -28.5,-13.3125 -17.4725,0 -31.82254,11.29638 -33.625,25.8125 -5.22745,-2.9648 -11.34027,-4.65625 -17.84375,-4.65625 -19.08176,0 -34.5625,14.52401 -34.5625,32.4375 0,17.91349 15.48074,32.4375 34.5625,32.4375 4.19894,0 8.21478,-0.71225 11.9375,-2 14.37,8.85597 38.38899,14.6875 65.625,14.6875 22.90147,0 43.5283,-4.11619 58.0625,-10.6875 4.53992,4.06047 10.04157,6.4375 15.96875,6.4375 15.57695,0 28.21875,-16.40621 28.21875,-36.65625 l -0.15625,-3.8125 c -1.50097,-18.67307 -13.62039,-32.84375 -28.0625,-32.84375 -5.52213,0 -10.68163,2.05942 -15.03125,5.625 1.49859,-3.03691 2.34375,-6.37019 2.34375,-9.875 l -0.15625,-2.625 c -1.57602,-12.92751 -14.30453,-22.75 -29.46875,-22.75 z m 19.71875,44.34375 c -0.48953,0.85095 -0.94276,1.75044 -1.375,2.65625 -0.57856,-0.19861 -1.15841,-0.402 -1.75,-0.59375 1.09524,-0.6363 2.14115,-1.3095 3.125,-2.0625 z"
       id="path3826-1" />
    <path
       inkscape:connector-curvature="0"
       style="fill:#ffffff;fill-opacity:1;stroke:#000000;stroke-width:1.10000002;stroke-miterlimit:4;stroke-opacity:1;stroke-dasharray:none"
       d="m 539.92136,753.90854 c -22.09119,0 -40.35921,14.0857 -43.38888,32.38428 -8.95255,-11.97864 -24.58958,-19.79297 -42.1862,-19.79297 -25.8631,0 -47.10429,16.79541 -49.77232,38.37792 -7.73777,-4.40806 -16.78607,-6.9229 -26.41264,-6.9229 -28.24515,0 -51.16002,21.59424 -51.16002,48.22795 0,26.6337 22.91487,48.22794 51.16002,48.22794 6.21535,0 12.15967,-1.05897 17.6701,-2.97359 21.27073,13.16702 56.82407,21.83732 97.13929,21.83732 33.89916,0 64.43136,-6.11994 85.94514,-15.89013 6.72007,6.03709 14.86371,9.57125 23.63723,9.57125 23.05727,0 41.76989,-24.39269 41.76989,-54.50037 l -0.23128,-5.66841 c -2.22177,-27.76305 -20.16115,-48.83196 -41.53861,-48.83196 -8.17396,0 -15.81114,3.06194 -22.24953,8.36323 2.21824,-4.51526 3.46926,-9.47117 3.46926,-14.68211 l -0.23128,-3.90284 c -2.33285,-19.22057 -21.17382,-33.82461 -43.62017,-33.82461 z m 29.18805,65.93011 c -0.72461,1.26519 -1.39549,2.60255 -2.0353,3.9493 -0.8564,-0.29529 -1.7147,-0.59769 -2.59038,-0.88278 1.62119,-0.94605 3.16937,-1.94696 4.62568,-3.06652 z"
       id="path3826-7" />
  </g>
  <g
     inkscape:groupmode="layer"
     id="layer8"
     inkscape:label="inset title">
    <text
       xml:space="preserve"
       style="font-size:48px;font-style:normal;font-variant:normal;font-weight:normal;font-stretch:normal;line-height:125%;letter-spacing:0px;word-spacing:0px;fill:#f7ffff;fill-opacity:1;stroke:none;font-family:URW Bookman L;-inkscape-font-specification:URW Bookman L"
       x="373.32861"
       y="503.56235"
       id="text3004"
       sodipodi:linespacing="125%"><tspan
         sodipodi:role="line"
         id="tspan3006"
         x="373.32861"
         y="503.56235"
         style="font-size:24px;font-style:normal;font-variant:normal;font-weight:bold;font-stretch:normal;fill:#f7ffff;fill-opacity:1;font-family:Waree;-inkscape-font-specification:Waree Bold">Using a computer </tspan></text>
    <rect
       style="fill:#fc5800;fill-opacity:1;stroke:none"
       id="rect4101"
       width="233.64662"
       height="81.454781"
       x="475.86743"
       y="970.90741"
       rx="0.38292202"
       ry="1.3605382" />
    <text
       xml:space="preserve"
       style="font-size:48px;font-style:normal;font-variant:normal;font-weight:normal;font-stretch:normal;line-height:125%;letter-spacing:0px;word-spacing:0px;fill:#f7ffff;fill-opacity:1;stroke:none;font-family:URW Bookman L;-inkscape-font-specification:URW Bookman L"
       x="495.15933"
       y="1039.5009"
       id="text4107"
       sodipodi:linespacing="125%"><tspan
         sodipodi:role="line"
         id="tspan4109"
         x="495.15933"
         y="1039.5009"
         style="font-size:40px;font-style:normal;font-variant:normal;font-weight:bold;font-stretch:normal;text-align:start;line-height:125%;writing-mode:lr-tb;text-anchor:start;font-family:Waree;-inkscape-font-specification:Waree Bold">BACP</tspan></text>
  </g>
  <g
     inkscape:label="titles"
     inkscape:groupmode="layer"
     id="layer1">
    <text
       xml:space="preserve"
       style="font-size:48px;font-style:normal;font-variant:normal;font-weight:normal;font-stretch:normal;line-height:125%;letter-spacing:0px;word-spacing:0px;fill:#000000;fill-opacity:1;stroke:none;font-family:URW Bookman L;-inkscape-font-specification:URW Bookman L"
       x="255.79121"
       y="281.96704"
       id="text3016"
       sodipodi:linespacing="125%"><tspan
         sodipodi:role="line"
         id="tspan3018"
         x="255.79121"
         y="281.96704"><tspan
           style="font-style:normal;font-variant:normal;font-weight:normal;font-stretch:normal;font-family:Waree;-inkscape-font-specification:Waree"
           id="tspan3020"><tspan
             style="font-size:24px"
             id="tspan3022">Using files </tspan></tspan></tspan></text>
    <text
       xml:space="preserve"
       style="font-size:48px;font-style:normal;font-variant:normal;font-weight:normal;font-stretch:normal;line-height:125%;letter-spacing:0px;word-spacing:0px;fill:#000000;fill-opacity:1;stroke:none;font-family:URW Bookman L;-inkscape-font-specification:URW Bookman L"
       x="93.871773"
       y="385.35394"
       id="text3024"
       sodipodi:linespacing="125%"><tspan
         sodipodi:role="line"
         id="tspan3026"
         x="93.871773"
         y="385.35394"
         style="font-size:24px;font-style:normal;font-variant:normal;font-weight:normal;font-stretch:normal;font-family:Waree;-inkscape-font-specification:Waree">Internet</tspan></text>
    <text
       xml:space="preserve"
       style="font-size:48px;font-style:normal;font-variant:normal;font-weight:normal;font-stretch:normal;line-height:125%;letter-spacing:0px;word-spacing:0px;fill:#000000;fill-opacity:1;stroke:none;font-family:URW Bookman L;-inkscape-font-specification:URW Bookman L"
       x="104.52995"
       y="635.58801"
       id="text3028"
       sodipodi:linespacing="125%"><tspan
         sodipodi:role="line"
         id="tspan3030"
         x="104.52995"
         y="635.58801"
         style="font-size:24px;font-style:normal;font-variant:normal;font-weight:normal;font-stretch:normal;font-family:Waree;-inkscape-font-specification:Waree">Search</tspan></text>
    <text
       xml:space="preserve"
       style="font-size:24px;font-style:normal;font-variant:normal;font-weight:normal;font-stretch:normal;text-align:start;line-height:125%;letter-spacing:0px;word-spacing:0px;writing-mode:lr-tb;text-anchor:start;fill:#000000;fill-opacity:1;stroke:none;font-family:Waree;-inkscape-font-specification:Waree"
       x="144.6033"
       y="787.10614"
       id="text3032"
       sodipodi:linespacing="125%"><tspan
         sodipodi:role="line"
         id="tspan3034"
         x="144.6033"
         y="787.10614">Program UI</tspan></text>
    <text
       xml:space="preserve"
       style="font-size:24px;font-style:normal;font-variant:normal;font-weight:normal;font-stretch:normal;text-align:start;line-height:125%;letter-spacing:0px;word-spacing:0px;writing-mode:lr-tb;text-anchor:start;fill:#000000;fill-opacity:1;stroke:none;font-family:Waree;-inkscape-font-specification:Waree"
       x="351.08362"
       y="851.68756"
       id="text3036"
       sodipodi:linespacing="125%"><tspan
         sodipodi:role="line"
         id="tspan3038"
         x="351.08362"
         y="851.68756">Logons and Passwords</tspan></text>
    <text
       xml:space="preserve"
       style="font-size:24px;font-style:normal;font-variant:normal;font-weight:normal;font-stretch:normal;text-align:start;line-height:125%;letter-spacing:0px;word-spacing:0px;writing-mode:lr-tb;text-anchor:start;fill:#000000;fill-opacity:1;stroke:none;font-family:Waree;-inkscape-font-specification:Waree"
       x="479.8913"
       y="673.76251"
       id="text3040"
       sodipodi:linespacing="125%"><tspan
         sodipodi:role="line"
         id="tspan3042"
         x="479.8913"
         y="673.76251">Webmail</tspan></text>
    <text
       xml:space="preserve"
       style="font-size:24px;font-style:normal;font-variant:normal;font-weight:normal;font-stretch:normal;text-align:start;line-height:125%;letter-spacing:0px;word-spacing:0px;writing-mode:lr-tb;text-anchor:start;fill:#000000;fill-opacity:1;stroke:none;font-family:Waree;-inkscape-font-specification:Waree"
       x="494.7963"
       y="561.86139"
       id="text3044"
       sodipodi:linespacing="125%"><tspan
         sodipodi:role="line"
         id="tspan3046"
         x="494.7963"
         y="561.86139">Word Processing</tspan></text>
    <text
       xml:space="preserve"
       style="font-size:24px;font-style:normal;font-variant:normal;font-weight:normal;font-stretch:normal;text-align:start;line-height:125%;letter-spacing:0px;word-spacing:0px;writing-mode:lr-tb;text-anchor:start;fill:#000000;fill-opacity:1;stroke:none;font-family:Waree;-inkscape-font-specification:Waree"
       x="405.67456"
       y="390.18036"
       id="text3048"
       sodipodi:linespacing="125%"><tspan
         sodipodi:role="line"
         id="tspan3050"
         x="405.67456"
         y="390.18036">Internet Forms</tspan></text>
  </g>
  <g
     inkscape:groupmode="layer"
     id="layer5"
     inkscape:label="title bg"
     style="display:inline">
    <rect
       style="fill:#f9ffda;fill-opacity:1;stroke:none"
       id="rect3911"
       width="535.09387"
       height="107.93739"
       x="-6.8896208"
       y="87.815277"
       rx="0.28688371"
       ry="1.3605382" />
    <text
       xml:space="preserve"
       style="font-size:44.88646317px;font-style:normal;font-variant:normal;font-weight:normal;font-stretch:normal;line-height:125%;letter-spacing:0px;word-spacing:0px;fill:#d59100;fill-opacity:1;stroke:none;display:inline;font-family:URW Bookman L;-inkscape-font-specification:URW Bookman L"
       x="270.38184"
       y="164.47633"
       id="text3906-6-9"
       sodipodi:linespacing="125%"
       transform="scale(1.0693647,0.93513466)"><tspan
         sodipodi:role="line"
         id="tspan3908-2-1"
         x="270.38184"
         y="164.47633"
         style="font-size:52.36754227px;font-style:normal;font-variant:normal;font-weight:bold;font-stretch:normal;text-align:start;line-height:125%;writing-mode:lr-tb;text-anchor:start;fill:#baea00;fill-opacity:1;font-family:Waree;-inkscape-font-specification:Waree Bold">S</tspan></text>
  </g>
  <g
     inkscape:groupmode="layer"
     id="layer6"
     inkscape:label="Title underlying"
     style="display:none">
    <text
       xml:space="preserve"
       style="font-size:48px;font-style:normal;font-variant:normal;font-weight:normal;font-stretch:normal;line-height:125%;letter-spacing:0px;word-spacing:0px;fill:#d59100;fill-opacity:1;stroke:none;display:inline;font-family:URW Bookman L;-inkscape-font-specification:URW Bookman L"
       x="37.738724"
       y="146.80077"
       id="text3906-6-5-7"
       sodipodi:linespacing="125%"><tspan
         sodipodi:role="line"
         id="tspan3908-2-3-0"
         x="37.738724"
         y="146.80077"
         style="font-size:48px;font-style:normal;font-variant:normal;font-weight:bold;font-stretch:normal;text-align:start;line-height:125%;writing-mode:lr-tb;text-anchor:start;fill:#baea00;fill-opacity:1;font-family:Waree;-inkscape-font-specification:Waree Bold">The Short Syllabus</tspan></text>
  </g>
  <g
     inkscape:groupmode="layer"
     id="layer4"
     inkscape:label="title"
     style="display:inline">
    <text
       xml:space="preserve"
       style="font-size:48px;font-style:normal;font-variant:normal;font-weight:normal;font-stretch:normal;line-height:125%;letter-spacing:0px;word-spacing:0px;fill:#d59100;fill-opacity:1;stroke:none;display:inline;font-family:URW Bookman L;-inkscape-font-specification:URW Bookman L"
       x="38.539917"
       y="148.58325"
       id="text3906-6-5"
       sodipodi:linespacing="125%"><tspan
         sodipodi:role="line"
         id="tspan3908-2-3"
         x="38.539917"
         y="148.58325"
         style="font-size:48px;font-style:normal;font-variant:normal;font-weight:bold;font-stretch:normal;text-align:start;line-height:125%;writing-mode:lr-tb;text-anchor:start;fill:#baea00;fill-opacity:1;font-family:Waree;-inkscape-font-specification:Waree Bold">Th  S ort   ylla us</tspan></text>
    <text
       xml:space="preserve"
       style="font-size:48px;font-style:normal;font-variant:normal;font-weight:normal;font-stretch:normal;line-height:125%;letter-spacing:0px;word-spacing:0px;fill:#d59100;fill-opacity:1;stroke:none;font-family:URW Bookman L;-inkscape-font-specification:URW Bookman L"
       x="163.24348"
       y="149.57132"
       id="text3906-6"
       sodipodi:linespacing="125%"><tspan
         sodipodi:role="line"
         id="tspan3908-2"
         x="163.24348"
         y="149.57132"
         style="font-size:48px;font-style:normal;font-variant:normal;font-weight:bold;font-stretch:normal;text-align:start;line-height:125%;writing-mode:lr-tb;text-anchor:start;fill:#baea00;fill-opacity:1;font-family:Waree;-inkscape-font-specification:Waree Bold">h</tspan></text>
    <text
       xml:space="preserve"
       style="font-size:48px;font-style:normal;font-variant:normal;font-weight:normal;font-stretch:normal;line-height:125%;letter-spacing:0px;word-spacing:0px;fill:#d59100;fill-opacity:1;stroke:none;display:inline;font-family:URW Bookman L;-inkscape-font-specification:URW Bookman L"
       x="97.90799"
       y="141.14436"
       id="text3906-6-8"
       sodipodi:linespacing="125%"><tspan
         sodipodi:role="line"
         id="tspan3908-2-8"
         x="97.90799"
         y="141.14436"
         style="font-size:36px;font-style:normal;font-variant:normal;font-weight:bold;font-stretch:normal;text-align:start;line-height:125%;writing-mode:lr-tb;text-anchor:start;fill:#baea00;fill-opacity:1;font-family:Waree;-inkscape-font-specification:Waree Bold">e</tspan></text>
    <text
       xml:space="preserve"
       style="font-size:48px;font-style:normal;font-variant:normal;font-weight:normal;font-stretch:normal;line-height:125%;letter-spacing:0px;word-spacing:0px;fill:#d59100;fill-opacity:1;stroke:none;display:inline;font-family:URW Bookman L;-inkscape-font-specification:URW Bookman L"
       x="411.46835"
       y="149.45367"
       id="text3906-6-5-5"
       sodipodi:linespacing="125%"><tspan
         sodipodi:role="line"
         id="tspan3908-2-3-2"
         x="411.46835"
         y="149.45367"
         style="font-size:48px;font-style:normal;font-variant:normal;font-weight:bold;font-stretch:normal;text-align:start;line-height:125%;writing-mode:lr-tb;text-anchor:start;fill:#baea00;fill-opacity:1;font-family:Waree;-inkscape-font-specification:Waree Bold">b</tspan></text>
  </g>
  <g
     inkscape:groupmode="layer"
     id="layer9"
     inkscape:label="bird" />
  <g
     inkscape:groupmode="layer"
     id="layer12"
     inkscape:label="bird color"
     style="display:inline">
    <path
       style="fill:#989898;fill-opacity:1;stroke:none;display:inline"
       d="m 123.65209,862.92973 c 2.57277,-2.68547 4.82941,3.56198 7.29033,4.4797 -0.50814,-3.80053 3.99526,-1.36179 3.04733,1.21944 -0.04,2.8383 -0.77806,5.7268 0.38073,8.41257 -1.01098,2.79392 -4.4666,4.97371 -2.96428,8.43122 1.83262,4.29789 7.05333,0.60364 10.2494,0.26754 2.08978,-1.50265 8.13738,1.50495 4.02974,3.12115 -0.71711,-0.2179 2.92554,1.09069 0.58238,1.52187 -3.1434,1.13413 -5.77928,3.22554 -8.7134,4.81068 -2.03857,0.82393 -2.89687,1.9487 -0.58006,3.19288 3.54723,2.25174 4.36692,6.33319 5.92689,9.89737 1.06412,3.53992 5.03302,7.73619 3.96349,11.0016 -1.7551,0.16945 -3.50835,-4.81535 -3.17029,-1.12566 -0.72293,2.25717 0.28578,7.60025 -2.96776,7.307 -0.77617,-1.61982 -1.47148,-2.22389 -1.83386,-0.11853 -1.63869,1.63059 -2.44882,-2.33129 -4.31484,-1.04889 -0.95617,-1.54877 -2.03332,-2.34564 -3.62171,-1.63259 -1.54519,-2.34526 -3.88135,-1.88157 -5.91501,-3.60378 -1.85068,-0.70989 -4.42688,-2.27784 -5.29663,-3.72106 -3.56261,-1.05536 -3.88112,-5.33971 -7.08721,-7.05135 -1.88947,-1.53193 -3.25018,-4.22993 -3.45092,-4.82513 -2.91044,3.75403 -6.62047,7.81385 -11.732279,7.99621 -2.781902,0.004 -6.121861,0.8973 -8.305202,-1.30125 -2.812862,-1.942 -1.751469,-5.62197 -0.789361,-8.26658 1.679013,-3.47878 4.676142,-6.12405 7.771327,-8.33671 3.704383,-0.84314 7.384065,1.87559 11.090145,0.48047 1.37421,-0.46157 2.88676,-0.75512 0.6573,-1.18479 -2.45224,-1.94101 -2.5647,-5.03376 -2.01335,-7.70857 1.29614,-2.72472 3.14477,-5.19791 4.62953,-7.78687 1.83969,-2.42408 3.44969,-5.02747 5.50185,-7.26806 1.22481,-1.60725 1.98774,-3.13818 3.1065,-4.37772 3.0189,0.94487 0.14225,-4.02201 3.11474,-2.50502 0.6925,0.59214 2.35897,1.42266 1.41447,-0.27714 z m 0.44407,1.69458 c 0.19124,0.38359 0.30529,-0.25142 0,0 z m 6.51934,2.99063 c 0.19125,0.38357 0.3053,-0.25142 0,0 z m -24.71469,21.51 c 0.19125,0.38358 0.30527,-0.25144 0,0 z m -0.15082,0.17445 c 0.19125,0.38357 0.3053,-0.25142 0,0 z"
       id="Selection-7-9"
       inkscape:connector-curvature="0"
       sodipodi:nodetypes="cccccccccccccccccccccccccccccccccccccccccc" />
  </g>
  <g
     inkscape:groupmode="layer"
     id="layer10"
     inkscape:label="bird trace"
     style="display:inline">
    <path
       style="fill:none;stroke:#000000;stroke-width:1px;stroke-linecap:butt;stroke-linejoin:miter;stroke-opacity:1"
       d="m 135.48129,896.90104 c -1.40305,-0.42141 -4.03584,-1.88596 -5.05653,-2.8535"
       id="path4325"
       inkscape:connector-curvature="0"
       sodipodi:nodetypes="cc" />
    <path
       style="fill:none;stroke:#000000;stroke-width:1px;stroke-linecap:butt;stroke-linejoin:miter;stroke-opacity:1"
       d="m 109.11129,903.66633 c -1.22743,-1.32282 -2.19562,-2.70622 -2.8758,-4.39829"
       id="path4327"
       inkscape:connector-curvature="0"
       sodipodi:nodetypes="cc" />
    <path
       style="fill:none;stroke:#000000;stroke-width:1px;stroke-linecap:butt;stroke-linejoin:miter;stroke-opacity:1"
       d="m 147.34656,887.95753 -2.57746,1.03536 2.13482,0.97187"
       id="path4329"
       inkscape:connector-curvature="0"
       sodipodi:nodetypes="ccc" />
    <path
       style="fill:none;stroke:#000000;stroke-width:1px;stroke-linecap:butt;stroke-linejoin:miter;stroke-opacity:1"
       d="m 140.64449,908.49524 c -0.27461,2.86206 -0.27514,5.80031 -0.347,8.7073 -0.0875,2.52811 -0.40565,5.49373 -1.21225,7.61287"
       id="path4337"
       inkscape:connector-curvature="0"
       sodipodi:nodetypes="ccc" />
    <path
       style="fill:none;stroke:#000000;stroke-width:1px;stroke-linecap:butt;stroke-linejoin:miter;stroke-opacity:1"
       d="m 134.61538,904.54513 c -0.64799,3.89684 -3.47773,6.8797 -5.05852,10.4061 -1.07049,1.20002 -3.35802,4.99658 -4.93715,5.1963"
       id="path4341"
       inkscape:connector-curvature="0"
       sodipodi:nodetypes="ccc" />
    <path
       style="fill:none;stroke:#000000;stroke-width:1px;stroke-linecap:butt;stroke-linejoin:miter;stroke-opacity:1"
       d="m 137.00624,906.00044 c -1.35135,5.37075 -2.70271,10.74151 -4.05406,16.11226"
       id="path4343"
       inkscape:connector-curvature="0"
       sodipodi:nodetypes="cc" />
    <path
       style="fill:none;stroke:#000000;stroke-width:1px;stroke-linecap:butt;stroke-linejoin:miter;stroke-opacity:1"
       d="m 138.25364,908.39129 c -0.42125,3.58479 -0.13818,7.24743 -0.81998,10.82764 -0.15405,1.38008 -1.03042,4.85107 -1.57746,5.60964"
       id="path4345"
       inkscape:connector-curvature="0"
       sodipodi:nodetypes="ccc" />
    <path
       style="fill:none;stroke:#000000;stroke-width:1px;stroke-linecap:butt;stroke-linejoin:miter;stroke-opacity:1"
       d="m 141.99584,912.96509 c 0.36231,1.05649 1.44404,3.12054 2.18954,3.95999"
       id="path4347"
       inkscape:connector-curvature="0"
       sodipodi:nodetypes="cc" />
    <path
       style="fill:none;stroke:#000000;stroke-width:1px;stroke-linecap:butt;stroke-linejoin:miter;stroke-opacity:1"
       d="m 130.45738,878.45366 c -3.49104,-0.17541 -6.8608,-1.5016 -10.39501,-1.2474 -2.88722,-0.29832 -6.84251,-0.92077 -9.73086,-1.19707"
       id="path4349"
       inkscape:connector-curvature="0"
       sodipodi:nodetypes="ccc" />
    <path
       style="fill:none;stroke:#000000;stroke-width:1px;stroke-linecap:butt;stroke-linejoin:miter;stroke-opacity:1"
       d="m 129.52183,875.85491 c -3.9121,-0.87008 -7.88549,-1.78161 -11.43451,-3.74221 -1.25263,-0.52747 -3.2348,-1.43207 -4.05406,-1.2474"
       id="path4351"
       inkscape:connector-curvature="0"
       sodipodi:nodetypes="ccc" />
    <path
       style="fill:none;stroke:#000000;stroke-width:1px;stroke-linecap:butt;stroke-linejoin:miter;stroke-opacity:1"
       d="m 129.93763,873.04825 c -2.83505,-0.85785 -5.58148,-2.59568 -7.38046,-4.9896 -0.82403,-1.08279 -2.59685,-0.73284 -3.3264,-1.8711"
       id="path4353"
       inkscape:connector-curvature="0"
       sodipodi:nodetypes="ccc" />
    <path
       style="fill:none;stroke:#000000;stroke-width:1px;stroke-linecap:butt;stroke-linejoin:miter;stroke-opacity:1"
       d="m 129.31393,870.2416 c -2.89325,-0.58052 -3.71767,-3.8703 -5.50936,-5.61331"
       id="path4355"
       inkscape:connector-curvature="0"
       sodipodi:nodetypes="cc" />
    <path
       style="fill:none;stroke:#000000;stroke-width:1px;stroke-linecap:butt;stroke-linejoin:miter;stroke-opacity:1"
       d="m 130.56133,868.68235 c 0.13519,0.28721 -0.38471,0.72787 -0.10395,0.93555"
       id="path4357"
       inkscape:connector-curvature="0"
       sodipodi:nodetypes="cc" />
    <path
       style="fill:none;stroke:#000000;stroke-width:1px;stroke-linecap:butt;stroke-linejoin:miter;stroke-opacity:1"
       d="m 120.21279,915.25047 c 2.20871,-2.48558 3.41217,-5.68104 5.37693,-8.32144"
       id="path4359"
       inkscape:connector-curvature="0"
       sodipodi:nodetypes="cc" />
    <path
       style="fill:none;stroke:#000000;stroke-width:1px;stroke-linecap:butt;stroke-linejoin:miter;stroke-opacity:1"
       d="m 107.92267,900.78397 c 2.91039,-1.02562 5.73324,-2.25479 8.32143,-3.96869 l -0.12802,0"
       id="path4361"
       inkscape:connector-curvature="0"
       sodipodi:nodetypes="ccc" />
    <path
       style="fill:none;stroke:#000000;stroke-width:1px;stroke-linecap:butt;stroke-linejoin:miter;stroke-opacity:1"
       d="m 110.73915,904.62463 c 0.66324,-0.33316 5.30324,-1.82755 6.89081,-3.90769 0.31656,-0.2635 0.66774,-0.49529 0.91854,-0.82913"
       id="path4363"
       inkscape:connector-curvature="0"
       sodipodi:nodetypes="ccc" />
    <path
       style="fill:none;stroke:#000000;stroke-width:1px;stroke-linecap:butt;stroke-linejoin:miter;stroke-opacity:1"
       d="m 114.83586,909.36145 c 2.5881,-1.36018 5.80178,-2.09172 7.54562,-4.61538 0.24949,-0.57208 0.23409,-1.22178 0.51978,-1.78573"
       id="path4365"
       inkscape:connector-curvature="0"
       sodipodi:nodetypes="ccc" />
    <path
       style="fill:none;stroke:#000000;stroke-width:1px;stroke-linecap:butt;stroke-linejoin:miter;stroke-opacity:1"
       d="m 123.41334,917.04278 c 1.85381,-1.9613 3.07586,-4.40276 4.22474,-6.78517"
       id="path4367"
       inkscape:connector-curvature="0"
       sodipodi:nodetypes="cc" />
    <path
       style="fill:none;stroke:#000000;stroke-width:1px;stroke-linecap:butt;stroke-linejoin:miter;stroke-opacity:1"
       d="m 116.37213,880.94053 c -2.38603,0.0581 -6.1859,-0.86492 -8.58739,-0.51208"
       id="path4369"
       inkscape:connector-curvature="0"
       sodipodi:nodetypes="cc" />
    <path
       style="fill:none;stroke:#000000;stroke-width:1px;stroke-linecap:butt;stroke-linejoin:miter;stroke-opacity:1"
       d="m 115.60399,884.14109 c -2.87592,-0.50602 -5.81245,-0.0689 -8.7055,-0.38407"
       id="path4371"
       inkscape:connector-curvature="0"
       sodipodi:nodetypes="cc" />
    <path
       style="fill:none;stroke:#000000;stroke-width:1px;stroke-linecap:butt;stroke-linejoin:miter;stroke-opacity:1"
       d="m 115.73202,887.46966 c -3.66945,0.86334 -7.42309,1.32567 -11.13793,1.92034"
       id="path4373"
       inkscape:connector-curvature="0"
       sodipodi:nodetypes="cc" />
    <path
       style="fill:none;stroke:#000000;stroke-width:1px;stroke-linecap:butt;stroke-linejoin:miter;stroke-opacity:1"
       d="m 112.78751,891.18231 c -1.29722,0.64841 -2.44127,1.57416 -3.71265,2.17637"
       id="path4375"
       inkscape:connector-curvature="0"
       sodipodi:nodetypes="cc" />
    <path
       style="fill:none;stroke:#000000;stroke-width:1px;stroke-linecap:butt;stroke-linejoin:miter;stroke-opacity:1"
       d="m 101.39354,896.68726 c -2.730844,0.72961 -5.754714,0.54287 -8.449465,-0.25605"
       id="path4377"
       inkscape:connector-curvature="0"
       sodipodi:nodetypes="cc" />
    <path
       style="fill:none;stroke:#000000;stroke-width:1px;stroke-linecap:butt;stroke-linejoin:miter;stroke-opacity:1"
       d="m 97.936938,899.50375 c -3.000234,0.46557 -6.050413,1.51898 -9.067513,0.5044 -0.0872,-0.0434 -2.999671,-0.44257 -1.686347,-0.37638"
       id="path4379"
       inkscape:connector-curvature="0"
       sodipodi:nodetypes="ccc" />
    <path
       style="fill:none;stroke:#000000;stroke-width:1px;stroke-linecap:butt;stroke-linejoin:miter;stroke-opacity:1"
       d="m 94.736385,902.19221 c -2.76887,0.61582 -5.753197,0.0433 -8.577484,0"
       id="path4381"
       inkscape:connector-curvature="0"
       sodipodi:nodetypes="cc" />
    <path
       style="fill:none;stroke:#000000;stroke-width:1px;stroke-linecap:butt;stroke-linejoin:miter;stroke-opacity:1"
       d="m 105.36222,903.21639 c -2.38052,2.25553 -5.370076,3.9956 -7.169237,6.78517"
       id="path4383"
       inkscape:connector-curvature="0"
       sodipodi:nodetypes="cc" />
    <path
       style="fill:none;stroke:#000000;stroke-width:1px;stroke-linecap:butt;stroke-linejoin:miter;stroke-opacity:1"
       d="m 99.729248,903.72848 c -2.735638,1.65501 -5.651431,3.18611 -7.969738,5.40215 -0.586503,0.68333 -1.24192,1.65232 -1.759944,2.15115"
       id="path4385"
       inkscape:connector-curvature="0"
       sodipodi:nodetypes="ccc" />
    <path
       style="fill:none;stroke:#000000;stroke-width:1px;stroke-linecap:butt;stroke-linejoin:miter;stroke-opacity:1"
       d="m 95.248473,903.60045 c -3.074883,1.08931 -6.1875,1.99327 -9.217594,3.20056"
       id="path4387"
       inkscape:connector-curvature="0"
       sodipodi:nodetypes="cc" />
  </g>
  <g
     style="display:inline"
     inkscape:label="bird outline"
     id="g4602"
     inkscape:groupmode="layer">
    <path
       style="fill:none;stroke:#000000;stroke-width:1.24984288"
       inkscape:connector-curvature="0"
       id="path4604"
       d="m 110.20366,902.97178 c -1.77358,2.0516 -4.93661,5.78986 -7.46543,7.09042 m -5.548387,-16.95234 c 0.93256,-0.48825 1.090812,0.0442 2.049742,0.19978 l 5.066505,0.9298 c 0.72872,0.0652 2.19767,0.1167 2.89043,-0.0838 0.99513,-0.28785 1.17064,-0.70324 2.72179,-1.04032 m 23.56374,-27.9447 c 0.48851,0.43286 0.91528,2.49276 1.09908,3.21593 0.39286,1.54835 -0.6493,3.29947 -0.37439,4.92036 l 0.21778,1.88383 c 0.12881,0.53473 0.44975,1.29434 0.45198,1.84252 l -0.16223,1.21151 c -3.07585,2.14224 -3.20183,4.53766 -2.68578,7.42314 0.0473,0.26817 0.10829,0.73797 0.27735,0.95509 0.61411,0.78481 2.77666,0.72288 3.80006,0.54391 l 0.88051,-0.15526 c 2.79093,-0.50399 6.43316,-2.35866 9.20054,-1.32806 1.28061,0.47655 1.17048,1.14952 1.99195,1.67893 1.3849,0.89287 2.3614,0.89073 2.74929,2.51389 -1.13227,-0.0266 -1.90092,-0.28732 -3.09233,-0.0314 -1.92447,0.41326 -3.43366,1.54438 -5.0059,2.50326 l -2.65149,1.43898 -4.41665,2.75571 c 1.48892,1.59611 4.69829,3.98008 5.52518,5.82748 0.13699,0.42681 0.18672,0.84242 0.22757,1.29064 0.3419,1.64014 0.89883,1.52419 1.37038,2.71562 l 0.75214,2.38106 3.33751,6.50894 c 0.60544,1.5286 0.65867,2.26297 0.93455,3.82752 -2.18391,0.0953 -2.8927,-1.91638 -3.65116,-3.20065 0.24955,1.68303 -0.40815,5.74843 -0.82426,7.5385 -0.13009,0.55968 -0.38757,2.20939 -1.2616,2.2881"
       sodipodi:nodetypes="ccccccccccccccccccccccccccccccccc" />
    <path
       style="fill:none;stroke:#000000;stroke-width:1px;stroke-linecap:butt;stroke-linejoin:miter;stroke-opacity:1"
       d="m 135.04674,896.44173 c -0.89222,-0.40869 -1.83441,-0.78729 -2.53754,-1.49717 -0.34364,-0.28347 -0.70463,-0.54851 -1.01493,-0.86986"
       id="path4606"
       inkscape:connector-curvature="0" />
    <path
       style="fill:none;stroke:#000000;stroke-width:1px;stroke-linecap:butt;stroke-linejoin:miter;stroke-opacity:1"
       d="m 109.91262,903.80644 c -1.09335,-1.29738 -1.963,-2.65848 -2.63174,-4.08328 -0.0757,-0.20535 -0.16172,-0.41449 -0.31546,-0.57496"
       id="path4608"
       inkscape:connector-curvature="0"
       sodipodi:nodetypes="ccc" />
    <path
       style="fill:none;stroke:#000000;stroke-width:1px;stroke-linecap:butt;stroke-linejoin:miter;stroke-opacity:1"
       d="m 148.13542,887.62162 c -0.60693,0.27926 -1.67991,1.0878 -1.80222,1.17913 0.34728,0.27349 0.95266,0.65338 1.23384,0.84151"
       id="path4610"
       inkscape:connector-curvature="0"
       sodipodi:nodetypes="ccc" />
    <path
       style="fill:none;stroke:#000000;stroke-width:1px;stroke-linecap:butt;stroke-linejoin:miter;stroke-opacity:1"
       d="m 113.5174,891.06263 c -0.21267,-0.10536 -0.41736,0.0805 -0.53865,0.24048 -0.18387,0.26275 -0.54823,0.28295 -0.7594,0.51686 -0.20562,0.17806 -0.43493,0.34251 -0.70447,0.40351 -0.56443,0.23368 -0.99711,0.69623 -1.56332,0.92734 -0.051,0.0258 -0.10121,0.0538 -0.14698,0.0882"
       id="path4648"
       inkscape:connector-curvature="0" />
  </g>
  <g
     inkscape:label="bird2 color"
     id="g4871"
     inkscape:groupmode="layer"
     style="display:inline">
    <path
       style="fill:#989898;fill-opacity:1;stroke:none"
       inkscape:connector-curvature="0"
       id="path4873"
       d="m 341.87678,81.795152 -1.95438,-0.713466 -1.81969,-1.814871 c -1.0206,-0.710432 -4.88148,-1.541311 -6.23432,-1.539267 -1.04014,0 -2.23662,0.377669 -3.25722,0.514452 l -4.77725,0.265391 -1.95434,-0.13474 -1.73718,0.114322 -3.47437,-0.183732 c -3.07264,0.0044 -7.7044,1.876113 -10.64025,2.90706 -1.99342,0.700227 -3.93688,1.390241 -6.08013,1.380035 -1.28553,-0.0062 -3.12694,-0.391962 -2.75127,-2.037388 0.20195,-0.875796 1.53089,-1.390248 2.31697,-1.776085 l 6.94873,-2.92339 c -2.82718,-0.693092 -6.08485,-0.736737 -8.67741,-1.283186 -0.14331,-1.157518 4.64063,-2.330219 5.63734,-2.791591 3.45048,-1.594391 4.45588,-1.469864 7.81733,-2.368109 2.17799,-0.581818 4.22787,-1.398409 6.29728,-2.251744 0.42996,-0.177612 2.01079,-0.777805 2.26052,-1.018697 0.76002,-0.743094 -0.0304,-1.431071 1.64815,-1.923067 0.25406,-1.429034 0.68836,-0.841091 1.82838,-1.863863 2.85333,-2.560009 2.03468,-1.463739 4.03462,-2.388527 l 2.17147,-1.214678 1.30289,-0.387875 3.25722,-1.608684 5.4287,-2.194583 2.17147,-0.877833 5.21156,-1.441277 4.77726,-2.072094 c 1.0119,-0.455253 2.13239,-0.636941 3.0379,-1.322881 2.08895,-1.584178 2.21056,-3.250023 3.33539,-5.042438 0.69487,-1.108513 2.58188,-3.143864 3.83265,-3.656272 l 1.52004,-0.351139 c 1.02711,-0.273553 0.92939,-0.449122 2.17148,-0.479746 2.46246,-0.06532 4.79462,1.100357 6.12574,3.058129 l 2.03425,4.258482 c 0.56459,0.87579 -2.4894,0.132097 -2.4894,0.132097 0,0 2.10982,3.238405 1.27815,2.966889 -0.63408,-0.208231 -1.55261,-0.759425 -2.17149,-0.812504 -0.9663,-0.0837 -2.36256,0.877833 -2.83812,1.625008 -1.25512,1.967985 -0.65579,4.540237 -1.19865,6.732782 -1.051,4.225847 -1.5461,4.078858 -3.4266,7.757598 -1.55044,3.033624 -1.80016,4.472864 -4.69691,6.906302 -1.81101,1.520899 -2.28005,1.347374 -4.12581,2.286449 -1.70679,0.867627 -3.85003,2.263993 -5.4287,3.352101 -0.84687,0.583861 -2.87286,2.543671 -2.73172,3.58278 0.05,0.369507 0.19556,0.382121 0.4062,0.698548"
       sodipodi:nodetypes="ccccccccccccccccccccccccccccccccccccccccccccccc" />
    <path
       style="fill:#cd6363;fill-opacity:1;stroke:none"
       d="m 340.371,81.3772 c 1.12935,1.73754 -0.18059,4.351389 -2.21902,4.576348 -1.60031,0.306887 -3.17956,0.355161 -4.65283,-0.07101 -1.04416,-0.246526 -1.84235,1.281505 -0.75803,1.701627 1.18608,0.769688 2.93178,-0.582661 4.22715,-0.168418 2.87751,0.633111 5.83911,0.264028 8.75128,0.436451 1.15054,0.230656 2.3143,0.08095 3.46173,-0.06783 1.0878,-0.08879 2.1719,0.0431 3.25631,0.06098 1.27922,-0.01425 3.58251,-1.458815 3.16105,-2.802401 -0.50115,-1.597607 -4.11153,-0.632645 -4.98852,-0.588356 -1.19672,0.04446 -2.46306,0.668787 -3.60559,0.05395 -1.08795,-0.495722 -0.57473,-1.898183 -1.27082,-2.669043 -0.72856,-0.522901 -1.72981,-0.197553 -2.57636,-0.284406 -0.68731,0.05468 -2.05219,-0.06927 -2.309,0.03031 0.75158,0.209133 0.97737,-0.899527 0.45274,-1.193686 0.10383,-0.504759 0.71713,-0.197375 0.15766,0.03665 -0.34718,0.33312 -0.69733,0.666035 -1.08775,0.94885 z"
       id="path4888"
       inkscape:connector-curvature="0"
       sodipodi:nodetypes="ccccccccaccccccccc" />
  </g>
  <g
     inkscape:groupmode="layer"
     id="layer14"
     inkscape:label="bird2"
     style="display:inline">
    <path
       style="fill:none;stroke:#000000;stroke-width:1.24999905"
       d="m 297.07796,80.589347 c 0,0 2.14794,-1.811406 3.81424,-2.392587 1.85662,-0.781096 3.71324,-1.562193 5.56986,-2.343289 m -7.21343,-1.977411 c -2.99573,0.763723 -0.0998,-0.200239 4.17336,-2.097366 m 0.29036,-0.290364 c 4.25506,-2.003228 8.80435,-1.940636 13.04885,-4.011598 3.29745,-0.553941 3.90475,-3.718649 6.51245,-5.123518 l 0,2e-6 c 1.51181,-1.858357 3.93579,-2.104769 5.82975,-3.392687 2.58917,-0.869866 25.47226,-7.906766 26.35337,-10.490906 2.40792,-7.061959 12.31936,-16.330047 20.09776,1.247693 -8.41284,-1.707442 -8.11587,1.211187 -9.21325,6.542162 -1.09739,5.330976 -3.58912,13.074299 -9.58234,16.78253 -3.93859,1.811173 -9.09639,3.936495 -10.8964,6.176942 -3.3547,4.175541 -4.15561,2.361701 -5.83719,1.133152 -1.63143,-2.200423 -5.01108,-2.215512 -7.54255,-2.588143 -2.29637,0.0063 -4.53994,0.708764 -6.85889,0.643988 -2.01575,0.17237 -4.02677,-0.09302 -6.04172,0.0494 m 25.88007,1.450337 c 0,0 0.34724,4.581341 2.51296,4.706262 2.16573,0.124921 6.36385,-2.222204 7.43868,0.01229 0.5838,1.213673 0.62167,3.009552 -2.51675,3.160754 -2.57205,0.123915 -5.12253,0.07468 -7.72216,-0.21322 -2.19436,0.184948 -4.85957,0.133758 -7.27867,-0.05282 -1.84347,-0.142183 -5.42363,1.037079 -5.48727,-0.810776 -0.0839,-2.434734 2.91562,0.1487 7.37396,-1.18644"
       id="Selection"
       inkscape:connector-curvature="0"
       sodipodi:nodetypes="ccccccccccscscscccccsascasc" />
    <path
       style="fill:none;stroke:#000000;stroke-width:1px;stroke-linecap:butt;stroke-linejoin:miter;stroke-opacity:1"
       d="m 372.27862,49.038243 -1.16702,-2.411836 2.87864,0.233404"
       id="path4876"
       inkscape:connector-curvature="0" />
    <path
       style="fill:none;stroke:#000000;stroke-width:1px;stroke-linecap:butt;stroke-linejoin:miter;stroke-opacity:1"
       d="m 354.86016,67.494565 c 0,0 -5.51435,4.736225 -8.85699,5.953055 -5.99169,2.18117 -12.6556,1.654662 -19.02073,2.032751 m 0,0 c -3.96201,0.235344 -11.90611,0.145196 -11.90611,0.145196"
       id="path4878"
       inkscape:connector-curvature="0"
       sodipodi:nodetypes="caccc" />
    <path
       sodipodi:type="arc"
       style="fill:#000000;fill-opacity:1;stroke:#cd6363;stroke-opacity:1"
       id="path4900"
       sodipodi:cx="367.75742"
       sodipodi:cy="44.421432"
       sodipodi:rx="0.99854273"
       sodipodi:ry="1.1747562"
       d="m 368.75596,44.421432 a 0.99854273,1.1747562 0 1 1 -0.005,-0.122092"
       sodipodi:start="0"
       sodipodi:end="6.1790669"
       sodipodi:open="true"
       transform="matrix(1.3529412,0,0,1,-131.79382,0.23495123)" />
  </g>
  <g
     style="display:none"
     inkscape:label="bird2 cokor 2"
     id="g4880"
     inkscape:groupmode="layer" />
</svg>
