<?xml version="1.0" encoding="UTF-8" standalone="no"?>
<!DOCTYPE svg PUBLIC "-//W3C//DTD SVG 20010904//EN"
              "http://www.w3.org/TR/2001/REC-SVG-20010904/DTD/svg10.dtd">

<svg xmlns="http://www.w3.org/2000/svg"
     width="5.15213in" height="6.38809in"
     viewBox="0 0 371 460">
  <path id="Selection"
        fill="none" stroke="black" stroke-width="1"
        d="M 247.20,10.01
           C 248.86,3.79 253.11,2.14 257.68,7.06
             257.68,7.06 260.64,11.00 260.64,11.00
             260.64,11.00 274.63,36.00 274.63,36.00
             277.20,41.06 277.81,45.98 283.00,49.00
             283.50,43.52 289.14,26.58 295.91,37.11
             298.18,40.62 298.53,55.06 298.84,60.17
             299.50,71.11 292.06,81.71 292.00,93.00
             292.00,93.00 291.37,106.00 291.37,106.00
             291.56,109.77 292.59,115.29 292.07,119.00
             292.07,119.00 290.00,127.00 290.00,127.00
             270.98,137.82 267.96,153.87 268.00,174.00
             268.00,175.87 267.88,179.12 268.60,180.79
             271.22,186.83 283.19,188.99 289.00,189.00
             289.00,189.00 294.00,189.00 294.00,189.00
             309.86,188.92 331.72,180.72 345.96,190.99
             352.55,195.74 351.29,200.16 355.30,204.72
             362.06,212.41 367.44,213.56 368.00,225.00
             361.79,223.47 357.81,220.79 351.00,221.10
             340.00,221.60 330.59,227.45 321.00,232.06
             321.00,232.06 305.00,238.63 305.00,238.63
             305.00,238.63 278.00,252.00 278.00,252.00
             284.65,264.57 300.01,284.52 302.77,298.00
             303.11,301.05 302.98,303.92 302.77,307.00
             303.06,318.50 306.24,318.38 307.68,327.00
             307.68,327.00 309.51,344.00 309.51,344.00
             309.51,344.00 321.57,392.00 321.57,392.00
             323.42,403.06 323.00,408.09 323.00,419.00
             310.88,417.04 308.93,402.59 306.00,393.00
             305.74,404.68 298.17,431.39 294.14,443.00
             292.88,446.63 289.86,457.48 284.97,456.97
             278.37,456.28 277.52,442.97 276.00,438.00
             275.10,442.81 270.78,454.44 264.10,452.34
             258.58,450.61 258.04,440.72 258.00,436.00
             256.47,437.28 255.00,438.79 253.00,439.35
             244.81,441.64 242.12,427.47 242.00,422.00
             239.40,423.22 235.95,425.08 233.00,424.59
             225.89,423.42 223.29,413.01 223.00,407.00
             212.09,410.00 206.53,401.72 205.00,392.00
             194.97,394.72 191.29,385.25 190.00,377.24
             188.35,377.36 186.83,377.85 185.10,377.24
             178.75,376.11 177.05,365.27 177.00,359.79
             175.40,359.96 173.59,360.02 172.04,359.79
             164.72,357.44 167.02,348.59 164.98,345.27
             163.36,342.64 160.05,342.25 157.74,338.89
             155.52,335.69 156.19,332.57 156.03,329.00
             155.70,322.00 153.11,324.72 153.00,314.00
             146.04,312.58 141.10,308.58 143.00,301.00
             137.48,298.30 136.41,295.87 138.00,290.00
             135.14,288.68 132.00,287.52 131.56,283.96
             131.28,282.20 132.27,280.04 131.56,278.06
             130.77,275.56 127.75,274.25 126.00,272.00
             126.00,272.00 129.00,270.00 129.00,270.00
             129.00,270.00 130.00,273.00 130.00,273.00
             130.00,273.00 131.00,265.00 131.00,265.00
             119.24,276.76 98.19,298.27 83.00,304.05
             68.70,309.49 46.29,307.07 32.00,302.52
             32.00,302.52 21.32,299.83 21.32,299.83
             19.50,298.73 17.28,295.70 15.84,294.00
             12.87,290.51 7.13,282.29 5.81,278.01
             5.81,278.01 4.77,272.58 4.77,272.58
             4.22,270.62 3.25,269.21 3.28,267.00
             3.34,263.05 6.00,261.95 7.38,255.00
             8.44,249.63 10.85,237.39 13.48,233.00
             16.36,228.19 19.06,227.08 21.16,223.91
             23.45,220.46 22.81,218.17 26.27,214.42
             26.27,214.42 40.91,202.25 40.91,202.25
             40.91,202.25 47.09,196.48 47.09,196.48
             47.09,196.48 53.74,192.24 53.74,192.24
             58.76,188.31 59.36,186.94 66.00,184.35
             71.61,182.16 74.87,184.38 80.00,186.58
             80.00,186.58 107.00,198.91 107.00,198.91
             110.95,200.22 118.99,202.32 123.00,201.79
             128.76,201.03 130.13,198.43 139.00,198.00
             135.00,194.25 134.75,195.87 131.18,193.69
             127.21,191.26 124.48,186.24 127.00,182.00
             124.62,179.82 125.22,178.98 126.00,176.00
             121.01,172.67 122.69,167.10 122.83,162.00
             122.65,158.12 121.48,156.95 122.83,153.00
             122.83,153.00 124.00,158.00 124.00,158.00
             124.00,158.00 126.27,142.76 126.27,142.76
             126.27,142.76 128.00,142.00 128.00,142.00
             128.37,136.81 133.30,126.99 137.02,123.33
             140.14,120.27 142.39,120.10 144.04,117.70
             142.47,119.98 151.64,103.83 150.41,106.83
             151.20,104.90 150.91,102.51 152.31,100.21
             154.42,96.76 157.85,96.80 160.03,93.73
             162.24,90.63 162.49,84.20 173.00,82.00
             173.64,68.87 179.24,70.72 183.44,66.37
             185.51,64.22 185.46,61.77 188.53,58.46
             188.53,58.46 197.44,51.39 197.44,51.39
             199.46,49.18 199.85,45.80 201.41,43.02
             204.41,37.70 208.30,36.52 214.00,36.00
             214.03,32.42 213.99,28.31 216.09,25.21
             219.76,19.79 225.56,21.51 228.82,26.00
             228.67,21.96 227.37,16.90 228.82,13.04
             230.71,6.84 236.64,7.13 240.82,11.15
             240.82,11.15 247.20,19.00 247.20,19.00
             247.00,16.59 246.87,12.21 247.20,10.01 Z
           M 248.00,22.00
           C 248.00,22.00 249.00,23.00 249.00,23.00
             249.00,23.00 249.00,22.00 249.00,22.00
             249.00,22.00 248.00,22.00 248.00,22.00 Z
           M 281.00,50.00
           C 281.00,50.00 282.00,51.00 282.00,51.00
             282.00,51.00 282.00,50.00 282.00,50.00
             282.00,50.00 281.00,50.00 281.00,50.00 Z
           M 124.00,166.00
           C 124.00,166.00 125.00,167.00 125.00,167.00
             125.00,167.00 125.00,166.00 125.00,166.00
             125.00,166.00 124.00,166.00 124.00,166.00 Z
           M 123.00,167.00
           C 123.00,167.00 124.00,168.00 124.00,168.00
             124.00,168.00 124.00,167.00 124.00,167.00
             124.00,167.00 123.00,167.00 123.00,167.00 Z" />
</svg>
