<?xml version="1.0" encoding="UTF-8" standalone="no"?>
<!DOCTYPE svg PUBLIC "-//W3C//DTD SVG 20010904//EN"
              "http://www.w3.org/TR/2001/REC-SVG-20010904/DTD/svg10.dtd">

<svg xmlns="http://www.w3.org/2000/svg"
     width="5.55556in" height="4.20833in"
     viewBox="0 0 400 303">
  <path id="Selection"
        fill="none" stroke="black" stroke-width="1"
        d="M 134.42,133.87
           C 147.56,121.33 143.79,126.70 153.00,122.17
             153.00,122.17 163.00,116.22 163.00,116.22
             163.00,116.22 169.00,114.32 169.00,114.32
             169.00,114.32 184.00,106.44 184.00,106.44
             184.00,106.44 209.00,95.69 209.00,95.69
             209.00,95.69 219.00,91.39 219.00,91.39
             219.00,91.39 243.00,84.33 243.00,84.33
             243.00,84.33 265.00,74.18 265.00,74.18
             269.66,71.95 274.82,71.06 278.99,67.70
             288.61,59.94 289.17,51.78 294.35,43.00
             297.55,37.57 306.24,27.60 312.00,25.09
             312.00,25.09 319.00,23.37 319.00,23.37
             323.73,22.03 323.28,21.17 329.00,21.02
             340.34,20.70 351.08,26.41 357.21,36.00
             357.21,36.00 364.07,50.00 364.07,50.00
             366.67,54.29 373.77,64.35 372.67,68.94
             371.44,74.07 364.83,73.37 361.00,72.04
             358.08,71.02 353.85,68.32 351.00,68.06
             346.55,67.65 340.12,72.36 337.93,76.02
             332.15,85.66 334.91,98.26 332.41,109.00
             327.57,129.70 325.29,128.98 316.63,147.00
             309.49,161.86 308.34,168.91 295.00,180.83
             286.66,188.28 284.50,187.43 276.00,192.03
             268.14,196.28 258.27,203.12 251.00,208.45
             247.10,211.31 237.77,220.91 238.42,226.00
             238.65,227.81 240.24,230.45 241.21,232.00
             242.68,234.37 244.75,237.63 247.10,239.14
             252.07,242.34 263.68,238.03 270.00,238.03
             275.44,238.03 282.85,238.89 284.57,245.02
             286.08,250.39 284.16,257.44 278.00,258.64
             275.15,259.20 271.89,257.61 269.00,257.11
             269.00,257.11 258.00,257.11 258.00,257.11
             258.00,257.11 247.00,257.96 247.00,257.96
             247.00,257.96 237.00,257.34 237.00,257.34
             237.00,257.34 221.00,258.00 221.00,258.00
             221.00,258.00 205.06,256.40 205.06,256.40
             199.55,254.18 199.93,245.83 205.06,243.01
             209.11,240.81 222.20,242.37 227.00,243.01
             224.91,239.32 222.71,234.20 219.70,231.39
             219.70,231.39 211.09,225.61 211.09,225.61
             211.09,225.61 202.71,216.72 202.71,216.72
             198.01,213.24 180.23,209.17 174.00,209.18
             169.21,209.18 163.70,211.03 159.00,211.70
             159.00,211.70 137.00,213.00 137.00,213.00
             137.00,213.00 128.00,212.34 128.00,212.34
             128.00,212.34 120.00,212.90 120.00,212.90
             120.00,212.90 104.00,212.00 104.00,212.00
             89.85,212.02 68.52,221.19 55.00,226.24
             45.82,229.67 36.87,233.05 27.00,233.00
             21.08,232.97 12.60,231.08 14.33,223.02
             15.26,218.73 21.38,216.21 25.00,214.32
             25.00,214.32 57.00,200.00 57.00,200.00
             53.40,199.83 38.81,197.74 36.31,195.99
             34.86,194.98 34.36,193.69 34.16,191.98
             33.50,186.31 38.41,182.30 43.00,180.04
             58.89,172.23 63.52,172.84 79.00,168.44
             89.03,165.59 98.47,161.59 108.00,157.41
             109.98,156.54 117.26,153.60 118.41,152.42
             121.91,148.78 118.27,145.41 126.00,143.00
             127.17,136.00 129.17,138.88 134.42,133.87 Z" />
</svg>
